<svg width="21" height="20" viewBox="0 0 21 20" fill="none" xmlns="http://www.w3.org/2000/svg">
<g clip-path="url(#clip0_0_1225)">
<path d="M13.5345 20.0013H3.11789C1.8537 20.0013 0.826172 18.9737 0.826172 17.7095V6.45953C0.826172 5.19534 1.8537 4.16797 3.11789 4.16797H3.53445C3.87946 4.16797 4.15945 4.44797 4.15945 4.79297C4.15945 5.13797 3.87946 5.41797 3.53445 5.41797H3.11789C2.5437 5.41797 2.07617 5.88535 2.07617 6.45953V17.7095C2.07617 18.2837 2.5437 18.7513 3.11789 18.7513H13.5345C14.1086 18.7513 14.5762 18.2837 14.5762 17.7095V17.293C14.5762 16.948 14.8562 16.668 15.2012 16.668C15.5462 16.668 15.8262 16.948 15.8262 17.293V17.7095C15.8262 18.9737 14.7986 20.0013 13.5345 20.0013Z" fill="#20BCC6"/>
<path d="M16.8679 15H8.11789C6.8537 15 5.82617 13.9725 5.82617 12.7083V2.29172C5.82617 1.02753 6.8537 0 8.11789 0H16.8679C18.1321 0 19.1595 1.02753 19.1595 2.29172V12.7083C19.1595 13.9725 18.1321 15 16.8679 15ZM8.11789 1.25C7.5437 1.25 7.07617 1.71753 7.07617 2.29172V12.7083C7.07617 13.2825 7.5437 13.75 8.11789 13.75H16.8679C17.4421 13.75 17.9095 13.2825 17.9095 12.7083V2.29172C17.9095 1.71753 17.4421 1.25 16.8679 1.25H8.11789Z" fill="#20BCC6"/>
</g>
<defs>
<clipPath id="clip0_0_1225">
<rect width="20" height="20" fill="white" transform="translate(0.00585938)"/>
</clipPath>
</defs>
</svg>
