<svg width="48" height="48" viewBox="0 0 48 48" fill="none" xmlns="http://www.w3.org/2000/svg">
<circle cx="24" cy="24" r="24" fill="#005CB9"/>
<path d="M19.2937 18.0188C19.2937 17.1521 19.2937 16.3698 19.2937 15.5876C19.3144 14.3826 19.4797 13.1776 19.9962 12.0783C20.9259 10.1122 22.5374 9.09744 24.6035 8.92831C26.339 8.80147 28.0952 8.86489 29.8306 8.84375C30.1612 8.84375 30.3058 8.94945 30.3058 9.30885C30.2852 10.7887 30.2852 12.2685 30.3058 13.7484C30.3058 14.0866 30.2025 14.1924 29.872 14.1924C28.9629 14.1712 28.0538 14.1924 27.1241 14.1924C26.0704 14.1924 25.6159 14.6574 25.6159 15.7568C25.6159 16.4755 25.6159 17.2155 25.6159 17.9977C27.2067 17.9977 28.7356 17.9977 30.3678 17.9977C30.1819 20.0906 29.9959 22.1201 29.8306 24.1919C28.3431 24.1919 26.9175 24.1919 25.4299 24.1919C25.4299 24.4456 25.4299 24.6781 25.4299 24.8896C25.4299 29.5194 25.4299 34.1703 25.4299 38.8001C25.4299 39.4766 25.4299 39.4766 24.7688 39.4766C23.2812 39.4766 21.8143 39.4766 20.3267 39.4766C19.273 39.4766 19.335 39.6881 19.335 38.483C19.335 33.9801 19.335 29.4771 19.335 24.9741C19.335 24.1919 19.335 24.1919 18.5912 24.1919C17.8888 24.1919 17.1657 24.1919 16.4219 24.1919C16.4219 22.1201 16.4219 20.0906 16.4219 18.0188C17.3723 18.0188 18.2813 18.0188 19.2937 18.0188Z" fill="white"/>
</svg>
