<svg width="40" height="42" viewBox="0 0 40 42" fill="none" xmlns="http://www.w3.org/2000/svg">
<g clip-path="url(#clip0_0_1199)">
<path d="M37.8885 10.0389L35.335 36.8681H4.66499L2.60773 10.5582L20 20.7469L37.8885 10.0389Z" fill="#F2F2F2"/>
<path d="M37.0224 4.98499L20 21.7161L2.97766 4.98499H20H37.0224Z" fill="#F2F2F2"/>
<path d="M4.665 12.7106V36.868H1.88586C0.844688 36.868 0 35.9842 0 34.8947V9.15259L3.04688 9.23948L4.665 12.7106Z" fill="#F14336"/>
<path d="M40.0009 9.1514V34.8936C40.0009 35.983 39.1563 36.8668 38.1141 36.8668H35.3359V12.7094L36.8744 8.90625L40.0009 9.1514Z" fill="#D32E2A"/>
<path d="M40 6.95821V9.15263L35.335 12.7106L20 24.4056L4.665 12.7106L0 9.15263V6.95821C0 5.8688 0.844688 4.98499 1.88586 4.98499H2.97766L20 17.9667L37.0223 4.98499H38.1131C39.1553 4.98499 40 5.86872 40 6.95821Z" fill="#F14336"/>
<path d="M4.665 12.7106L0 11.9538V9.15259L4.665 12.7106Z" fill="#D32E2A"/>
</g>
<defs>
<clipPath id="clip0_0_1199">
<rect width="40" height="41.853" fill="white"/>
</clipPath>
</defs>
</svg>
