<svg width="204" height="146" viewBox="0 0 204 146" fill="none" xmlns="http://www.w3.org/2000/svg">
<ellipse cx="102.373" cy="73.5311" rx="74" ry="24.5" transform="rotate(-25.2958 102.373 73.5311)" fill="#109EA7"/>
<g clip-path="url(#clip0_0_263)">
<path d="M41.9782 87.4407C49.2122 80.7937 71.1055 63.6571 100.805 48.2876" stroke="white" stroke-width="0.787232"/>
<path d="M29.4535 107.278C29.0956 104.429 30.685 100.758 34.0252 96.4953C37.355 92.2454 42.3662 87.4848 48.6974 82.5099C61.3561 72.5628 79.2343 61.8036 99.3297 52.5982C119.425 43.3929 137.914 37.4933 151.558 35.3915C158.382 34.3402 163.978 34.2417 167.955 35.1446C171.945 36.0501 174.233 37.9446 174.591 40.7935C174.949 43.6423 173.36 47.3131 170.019 51.5763C166.689 55.8263 161.678 60.5867 155.347 65.562C142.688 75.509 124.81 86.2681 104.715 95.4735C84.6193 104.679 66.1307 110.578 52.4866 112.68C45.6626 113.731 40.066 113.83 36.089 112.927C32.0996 112.022 29.8113 110.127 29.4535 107.278Z" stroke="white" stroke-width="0.787232"/>
<path d="M68.0928 97.0031L63.2811 86.9479L64.3034 86.458L66.3899 90.8181L71.8706 88.192L69.7842 83.8319L70.8065 83.3421L75.6182 93.3973L74.5959 93.8871L72.3192 89.1294L66.8384 91.7555L69.1152 96.5133L68.0928 97.0031ZM75.0753 85.4867L80.0175 90.0149L80.0459 90.0013L79.4202 83.4049L80.4709 82.9014L81.1656 92.8518C81.2152 93.5147 81.147 94.0653 80.9611 94.5036C80.7846 94.9373 80.4266 95.2834 79.8871 95.5419C79.5936 95.6825 79.2913 95.7925 78.9802 95.8717L78.6582 94.9436C78.9216 94.9105 79.1764 94.8349 79.4225 94.717C79.7349 94.5673 79.9382 94.3477 80.0323 94.0582C80.1405 93.7736 80.1752 93.3962 80.1363 92.9259L80.0098 91.2756L73.9962 86.0038L75.0753 85.4867ZM90.9111 86.0696L89.9882 86.5118C89.7238 86.0566 89.5236 85.6869 89.3877 85.4029L89.3593 85.4165C89.3607 85.8814 89.2026 86.3412 88.885 86.7961C88.5768 87.2463 88.1861 87.5849 87.7128 87.8116C86.8892 88.2062 86.142 88.2617 85.4709 87.978C84.8093 87.6897 84.2769 87.1243 83.8737 86.2816L81.9232 82.2056L82.8887 81.7429L84.6489 85.4213C85.0069 86.1693 85.4158 86.6834 85.8756 86.9635C86.3404 87.2296 86.9041 87.2039 87.5668 86.8865C88.1252 86.6189 88.4921 86.1696 88.6672 85.5386C88.8473 84.8936 88.738 84.1546 88.3393 83.3214L86.7082 79.9128L87.6737 79.4502L90.1543 84.634C90.4262 85.2021 90.6785 85.6806 90.9111 86.0696ZM90.1735 78.2524L91.0964 77.8102C91.3608 78.2654 91.561 78.6351 91.6969 78.9191L91.7253 78.9055C91.7239 78.4406 91.8773 77.983 92.1855 77.5328C92.5031 77.078 92.8986 76.7372 93.3718 76.5104C94.1954 76.1158 94.9379 76.0626 95.5995 76.3508C96.2705 76.6346 96.8077 77.1977 97.2109 78.0404L99.1614 82.1165L98.1959 82.5791L96.4357 78.9007C96.0778 78.1527 95.6664 77.6457 95.2016 77.3795C94.7417 77.0994 94.1805 77.1181 93.5179 77.4356C92.9594 77.7032 92.5901 78.1595 92.41 78.8044C92.2348 79.4354 92.3466 80.1675 92.7453 81.0007L94.3764 84.4092L93.4109 84.8718L90.9303 79.688C90.6584 79.1199 90.4062 78.6414 90.1735 78.2524ZM106.591 77.1774C106.511 77.7161 106.299 78.2079 105.953 78.6528C105.607 79.0977 105.188 79.4381 104.696 79.674C103.674 80.1638 102.687 80.2293 101.736 79.8704C100.78 79.5021 100.064 78.8208 99.5881 77.8267C99.1124 76.8325 99.0331 75.8521 99.3501 74.8854C99.6626 73.9093 100.33 73.1763 101.352 72.6865C101.845 72.4506 102.375 72.3422 102.942 72.3612C103.505 72.3707 104.024 72.518 104.498 72.8031L104.526 72.7895L102.018 67.5488L102.984 67.0862L108.122 77.8231L107.156 78.2858L106.619 77.1638L106.591 77.1774ZM100.36 75.0998C100.16 75.8242 100.243 76.5699 100.61 77.3368C100.977 78.1037 101.506 78.6363 102.195 78.9344C102.89 79.2185 103.625 79.1746 104.401 78.8026C105.14 78.4489 105.63 77.9054 105.873 77.1723C106.111 76.4297 106.046 75.6749 105.679 74.908C105.312 74.1411 104.765 73.6176 104.038 73.3377C103.31 73.0577 102.577 73.0946 101.839 73.4484C101.063 73.8203 100.57 74.3708 100.36 75.0998ZM112.94 70.5038L112.838 70.2907C112.29 69.1451 111.424 68.8557 110.241 69.4227C109.446 69.8037 108.912 70.3793 108.641 71.1495L107.796 70.7689C108.126 69.8306 108.845 69.0962 109.953 68.5655C110.71 68.2027 111.43 68.1139 112.112 68.2992C112.794 68.4845 113.321 68.9653 113.692 69.7417L115.086 72.6531C115.371 73.2496 115.647 73.7286 115.913 74.09L115.047 74.505C114.799 74.158 114.594 73.8141 114.431 73.4732L114.402 73.4868C114.224 74.5967 113.618 75.3988 112.587 75.8932C111.99 76.179 111.376 76.2695 110.744 76.1649C110.117 76.0463 109.643 75.6509 109.321 74.9786C109.163 74.6473 109.081 74.3313 109.077 74.0307C109.068 73.7206 109.139 73.4307 109.289 73.1608C109.44 72.891 109.624 72.6453 109.844 72.4236C110.059 72.1925 110.35 71.9602 110.715 71.7269C111.076 71.4842 111.42 71.2787 111.747 71.1104C112.078 70.9282 112.476 70.726 112.94 70.5038ZM113.3 71.2565L113.016 71.3925C112.562 71.6103 112.164 71.8242 111.822 72.0344C111.486 72.2307 111.16 72.4623 110.846 72.7293C110.541 72.9918 110.337 73.2701 110.233 73.5642C110.129 73.8583 110.15 74.1568 110.295 74.4598C110.503 74.8953 110.809 75.1447 111.211 75.2078C111.61 75.2615 112.026 75.1841 112.462 74.9754C113.115 74.6625 113.529 74.2022 113.704 73.5947C113.888 72.9827 113.833 72.369 113.538 71.7536L113.3 71.2565ZM116.086 65.8365L119.266 72.4831L118.301 72.9458L115.12 66.2991L116.086 65.8365ZM114.617 62.804C114.823 62.8685 114.971 62.9954 115.061 63.1848C115.152 63.3742 115.158 63.5691 115.079 63.7697C115.01 63.9658 114.886 64.1069 114.706 64.1931C114.526 64.2793 114.333 64.2901 114.128 64.2256C113.932 64.1565 113.789 64.0273 113.698 63.8379C113.607 63.6486 113.597 63.4559 113.666 63.2598C113.744 63.0592 113.874 62.9158 114.053 62.8297C114.233 62.7435 114.421 62.7349 114.617 62.804ZM123.185 62.4348L126.366 69.0814L125.4 69.544L122.22 62.8974L123.185 62.4348ZM121.717 59.4023C121.922 59.4668 122.07 59.5937 122.161 59.7831C122.251 59.9725 122.257 60.1674 122.179 60.368C122.11 60.5641 121.985 60.7052 121.805 60.7914C121.625 60.8775 121.433 60.8884 121.227 60.8239C121.031 60.7548 120.888 60.6256 120.797 60.4362C120.707 60.2469 120.696 60.0542 120.765 59.8581C120.844 59.6575 120.973 59.5141 121.153 59.4279C121.333 59.3418 121.521 59.3332 121.717 59.4023ZM127.929 55.9715L132.741 66.0267L131.719 66.5165L127.512 57.7253L126.435 60.1442L125.471 59.7334L127.021 56.4069L127.929 55.9715ZM135.078 52.2319C135.674 51.9462 136.267 51.8482 136.857 51.938C137.443 52.0184 137.978 52.2622 138.464 52.6696C138.959 53.0724 139.409 53.5496 139.812 54.1011C140.211 54.6432 140.576 55.2598 140.907 55.951C141.238 56.6422 141.489 57.3132 141.661 57.9641C141.833 58.6151 141.92 59.2599 141.923 59.8985C141.931 60.5232 141.785 61.0936 141.485 61.6098C141.181 62.1165 140.731 62.5127 140.134 62.7984C139.528 63.0887 138.933 63.1937 138.348 63.1133C137.758 63.0235 137.217 62.7819 136.727 62.3886C136.241 61.9812 135.801 61.5113 135.406 60.9787C135.016 60.4321 134.654 59.8084 134.319 59.1078C134.056 58.5586 133.842 58.0267 133.677 57.5121C133.508 56.988 133.388 56.4577 133.317 55.9212C133.252 55.3707 133.263 54.8708 133.35 54.4215C133.438 53.9721 133.623 53.5574 133.907 53.1771C134.195 52.7828 134.586 52.4678 135.078 52.2319ZM135.492 53.0983C135.066 53.3024 134.761 53.6118 134.575 54.0266C134.399 54.4369 134.339 54.9078 134.396 55.4393C134.453 55.9709 134.559 56.4963 134.714 57.0155C134.879 57.5301 135.092 58.062 135.355 58.6111C135.618 59.1603 135.898 59.6604 136.195 60.1116C136.498 60.5487 136.838 60.9559 137.216 61.3333C137.59 61.7012 137.992 61.9451 138.422 62.0651C138.857 62.1711 139.287 62.122 139.713 61.9179C140.129 61.7183 140.428 61.4181 140.609 61.0174C140.794 60.6026 140.861 60.1341 140.809 59.612C140.757 59.0899 140.653 58.5693 140.498 58.0501C140.338 57.5215 140.129 56.9873 139.87 56.4476C139.612 55.908 139.327 55.4101 139.016 54.954C138.705 54.498 138.362 54.086 137.988 53.7181C137.61 53.3407 137.201 53.0943 136.762 52.9789C136.332 52.8589 135.909 52.8987 135.492 53.0983Z" fill="white"/>
</g>
<defs>
<clipPath id="clip0_0_263">
<rect width="177" height="57" fill="white" transform="translate(11 93) rotate(-30.0772)"/>
</clipPath>
</defs>
</svg>
