<svg width="40" height="40" viewBox="0 0 40 40" fill="none" xmlns="http://www.w3.org/2000/svg">
<path d="M35 0H5C2.23858 0 0 2.23858 0 5V35C0 37.7614 2.23858 40 5 40H35C37.7614 40 40 37.7614 40 35V5C40 2.23858 37.7614 0 35 0Z" fill="#61A8DE"/>
<path d="M31.4962 8.82971L4.74774 19.2533C3.88135 19.591 3.93384 20.8342 4.82568 21.0976L11.6228 23.1047L14.1594 31.1538C14.4244 31.9946 15.4899 32.2495 16.1066 31.6197L19.6209 28.0315L26.5162 33.0928C27.36 33.7122 28.5618 33.252 28.776 32.2275L33.3428 10.3935C33.5665 9.32403 32.5143 8.43298 31.4962 8.82971ZM28.1427 13.6752L15.7182 24.6622C15.5943 24.7717 15.5155 24.9233 15.4971 25.0876L15.0187 29.34C15.0031 29.4786 14.809 29.497 14.7676 29.3637L12.7995 23.022C12.7094 22.7317 12.8269 22.4171 13.0852 22.2569L27.7573 13.1572C28.0947 12.9478 28.4401 13.4122 28.1427 13.6752Z" fill="white"/>
</svg>
