<svg width="206" height="29" viewBox="0 0 206 29" fill="none" xmlns="http://www.w3.org/2000/svg">
<path d="M170.485 21.1016C155.26 22.9793 111.327 26.8186 57.396 27.1548" stroke="#D8271C" stroke-width="0.836565"/>
<path d="M32.6882 6.21223C43.8014 4.84188 75.8692 2.03986 115.235 1.79453" stroke="#D8271C" stroke-width="0.836565"/>
<path d="M8.99964 12.1933C9.45872 11.6327 10.4824 11.0182 12.2503 10.3713C13.9968 9.73221 16.3359 9.11194 19.217 8.52314C24.9725 7.34688 32.7709 6.31988 42.071 5.49504C60.6644 3.84596 85.1827 3.01143 111.214 3.38473C137.245 3.75804 159.843 5.26825 175.335 7.40614C183.084 8.47548 189.039 9.69971 192.757 11.0118C194.618 11.6686 195.898 12.3408 196.57 13.0145C197.249 13.6965 197.255 14.3258 196.795 14.8864C196.336 15.447 195.313 16.0615 193.545 16.7084C191.798 17.3474 189.459 17.9677 186.578 18.5565C180.823 19.7328 173.024 20.7598 163.724 21.5846C145.131 23.2337 120.612 24.0682 94.5812 23.6949C68.55 23.3216 45.9519 21.8114 30.4598 19.6735C22.7109 18.6042 16.7561 17.3799 13.0384 16.0678C11.1774 15.411 9.8967 14.7389 9.22529 14.0651C8.54565 13.3831 8.54055 12.7539 8.99964 12.1933Z" stroke="#D8271C" stroke-width="0.836565"/>
</svg>
