<svg width="159" height="280" viewBox="0 0 159 280" fill="none" xmlns="http://www.w3.org/2000/svg">
<path d="M131.381 221.012C119.648 243.442 107.559 261.486 66 265.502" stroke="#D8271C" stroke-width="0.927904"/>
<path d="M25.1882 60.988C33.7521 45.8924 58.4638 15.0255 88.799 12.3224" stroke="#D8271C" stroke-width="0.927904"/>
<path d="M7.06731 126.878C8.88907 95.0815 18.6538 67.9808 32.9444 49.8646C47.2385 31.7441 66.0165 22.6574 85.8792 26.7287C105.742 30.8 123.055 47.2845 134.965 70.7762C146.872 94.2621 153.34 124.69 151.518 156.486C149.697 188.283 139.932 215.383 125.641 233.499C111.347 251.62 92.5692 260.707 72.7066 256.635C52.844 252.564 35.5311 236.08 23.6212 212.588C11.7141 189.102 5.24554 158.674 7.06731 126.878Z" stroke="#D8271C" stroke-width="0.927904"/>
</svg>
