<svg width="48" height="48" viewBox="0 0 48 48" fill="none" xmlns="http://www.w3.org/2000/svg">
<circle cx="24" cy="24" r="24" fill="url(#paint0_linear_0_1272)"/>
<path d="M35.6992 18.5522C35.6992 22.4632 35.6992 26.3531 35.6992 30.2642C35.6786 30.3487 35.6579 30.4333 35.6579 30.5179C35.5959 31.1521 35.4513 31.7863 35.1827 32.3571C34.0257 34.8517 32.1043 36.1836 29.3978 36.2047C25.9061 36.247 22.4145 36.2259 18.9228 36.2047C17.8278 36.2047 16.7948 35.9722 15.8444 35.4014C13.737 34.1329 12.642 32.2091 12.642 29.7145C12.6213 26.184 12.642 22.6535 12.642 19.1442C12.642 18.7002 12.6627 18.2562 12.766 17.8123C13.3238 15.212 14.894 13.5419 17.3939 12.8231C17.7452 12.7174 18.0964 12.6962 18.4476 12.6328C22.2698 12.6328 26.0714 12.6328 29.8936 12.6328C30.1415 12.6751 30.3895 12.6962 30.6167 12.7597C33.158 13.3516 34.8108 14.9372 35.5133 17.5163C35.6166 17.8334 35.6373 18.1928 35.6992 18.5522ZM24.15 30.8561C27.6003 30.8773 30.4514 27.9598 30.4721 24.4082C30.4928 20.8777 27.6416 17.9603 24.1706 17.9391C20.7203 17.918 17.8691 20.8354 17.8485 24.3871C17.8485 27.9387 20.679 30.8561 24.15 30.8561ZM30.6374 19.4824C31.6498 19.4824 32.4968 18.6156 32.4968 17.5797C32.4968 16.5438 31.6498 15.6771 30.6374 15.6771C29.625 15.6771 28.7779 16.5438 28.7779 17.5797C28.7573 18.6156 29.6044 19.4824 30.6374 19.4824Z" fill="white"/>
<path d="M24.1687 19.332C26.8959 19.332 29.1273 21.6364 29.1066 24.4269C29.0859 27.2175 26.8546 29.5007 24.1274 29.4796C21.4002 29.4584 19.1895 27.1752 19.1895 24.4058C19.2101 21.6152 21.4621 19.332 24.1687 19.332Z" fill="white"/>
<path d="M31.132 17.5832C31.132 17.858 30.884 18.0906 30.6155 18.0906C30.3469 18.0906 30.0989 17.8369 30.0989 17.5621C30.1196 17.2872 30.3469 17.0547 30.6155 17.0547C30.9047 17.0547 31.132 17.3084 31.132 17.5832Z" fill="white"/>
<defs>
<linearGradient id="paint0_linear_0_1272" x1="-3.81455" y1="0.572567" x2="37.3433" y2="45.6681" gradientUnits="userSpaceOnUse">
<stop offset="0.1904" stop-color="#FBD822"/>
<stop offset="0.5324" stop-color="#F53288"/>
<stop offset="1" stop-color="#6E1CCF"/>
</linearGradient>
</defs>
</svg>
