<svg width="161" height="38" viewBox="0 0 161 38" fill="none" xmlns="http://www.w3.org/2000/svg">
<path d="M145.856 30.7727L18.2642 35.716C10.3222 36.0237 3.77503 30.1892 3.62148 22.6673C3.46793 15.1453 9.76676 8.81317 17.7087 8.50548L145.301 3.56223C153.243 3.25454 159.79 9.08901 159.944 16.6109C160.096 24.0918 153.798 30.465 145.856 30.7727Z" fill="white"/>
<path d="M46.7983 17.1162C46.6707 17.2944 46.543 17.4726 46.4127 17.5208C46.2833 17.6124 46.1092 17.6623 45.8904 17.6706C45.6717 17.6789 45.452 17.6439 45.2315 17.5656C45.0109 17.4873 44.7457 17.3673 44.4814 17.2907C44.2162 17.1707 43.9081 17.0957 43.6001 17.0208C43.2483 16.9474 42.8974 16.9174 42.4599 16.934C41.8474 16.9572 41.4126 17.1037 41.0671 17.3334C40.7654 17.5615 40.5976 17.9146 40.6058 18.3043C40.6121 18.6074 40.7041 18.8206 40.9274 19.0288C41.1498 19.1937 41.4159 19.357 41.7695 19.5169C42.1222 19.6335 42.5196 19.7918 42.9598 19.9051C43.4 20.0185 43.8402 20.1318 44.3251 20.2867C44.8099 20.4417 45.2511 20.5983 45.6931 20.7983C46.1351 20.9982 46.5343 21.2431 46.8915 21.5762C47.2478 21.866 47.5185 22.2458 47.7472 22.7138C47.975 23.1385 48.0742 23.6981 48.0878 24.3476C48.1041 25.1271 47.9873 25.8249 47.6956 26.5293C47.4029 27.1904 47.0209 27.7682 46.4621 28.2661C45.9033 28.764 45.2106 29.1369 44.3857 29.4715C43.5599 29.7628 42.6001 29.9292 41.5064 29.9707C40.9814 29.9906 40.4117 29.9688 39.8849 29.9021C39.3581 29.8354 38.8304 29.7254 38.3018 29.5721C37.7732 29.4188 37.3312 29.2189 36.8891 29.019C36.4471 28.819 36.0917 28.5725 35.7791 28.281L36.8366 26.5075C36.9634 26.286 37.0919 26.1512 37.3079 26.013C37.4802 25.8764 37.7418 25.8232 38.0481 25.8116C38.3106 25.8016 38.574 25.835 38.7954 25.9566C39.0169 26.0782 39.2383 26.1998 39.5036 26.3198C39.7688 26.4397 40.0777 26.558 40.4304 26.6746C40.7832 26.7913 41.2216 26.818 41.7028 26.7998C42.0528 26.7865 42.3581 26.7316 42.6188 26.635C42.8795 26.5385 43.0527 26.4452 43.225 26.3087C43.3973 26.1722 43.482 26.039 43.5659 25.8624C43.6498 25.6859 43.6462 25.5127 43.6426 25.3395C43.6362 25.0364 43.5433 24.7799 43.32 24.5717C43.0968 24.3635 42.8306 24.2002 42.4779 24.0836C42.1252 23.967 41.7279 23.8087 41.2886 23.7387C40.8483 23.6253 40.4081 23.512 39.9233 23.3571C39.4822 23.2004 38.9973 23.0455 38.5553 22.8455C38.1132 22.6456 37.7132 22.3574 37.3559 22.0243C36.9987 21.6912 36.7271 21.2681 36.4975 20.7568C36.2679 20.2455 36.1678 19.6426 36.1533 18.9497C36.1397 18.3002 36.2574 17.6457 36.5072 17.0296C36.757 16.4134 37.1399 15.8789 37.655 15.3827C38.17 14.8865 38.819 14.5152 39.6011 14.2255C40.3831 13.9359 41.2992 13.7712 42.3491 13.7314C42.9179 13.7098 43.4875 13.7315 44.0152 13.8415C44.542 13.9082 45.0707 14.0616 45.5118 14.2182C45.9966 14.3731 46.3949 14.5747 46.7941 14.8196C47.1933 15.0645 47.5487 15.311 47.8175 15.6042L46.7983 17.1162Z" fill="#D8271C"/>
<path d="M47.6641 14.1128L51.4517 13.9697C51.8 13.9565 52.063 14.0326 52.2834 14.1532C52.5047 14.3169 52.6825 14.4821 52.774 14.6937L54.4881 21.6376C54.6295 22.1482 54.7709 22.6589 54.8688 23.1711C54.9667 23.6834 55.0637 24.1527 55.1616 24.665C55.2823 24.1875 55.4456 23.6653 55.5654 23.1448C55.6852 22.6243 55.8486 22.1022 56.0119 21.58L57.8243 14.5028C57.9068 14.2847 58.0329 14.065 58.2479 13.9279C58.462 13.7478 58.7223 13.6949 59.0271 13.6834L61.1168 13.6045C61.4651 13.5913 61.7281 13.6674 61.9485 13.788C62.1698 13.9517 62.3476 14.1169 62.4391 14.3285L64.458 21.2609C64.5994 21.7715 64.7843 22.2805 64.9257 22.7911C65.0672 23.3017 65.2077 23.7694 65.3491 24.28C65.4254 23.7612 65.5025 23.2853 65.6223 22.7648C65.7421 22.2443 65.8619 21.7238 65.9817 21.2033L67.4894 14.1376C67.5719 13.9195 67.698 13.6998 67.913 13.5626C68.1271 13.3826 68.3874 13.3297 68.6922 13.3182L72.3057 13.1817L67.7129 28.9635L63.8817 29.1083C63.664 29.1165 63.489 29.0801 63.3557 28.9562C63.2224 28.8322 63.0882 28.6653 62.9948 28.3678L60.5679 20.6769C60.4301 20.3381 60.3358 19.9977 60.2415 19.6573C60.1473 19.3168 60.053 18.9764 60.0023 18.6343C59.9224 18.9814 59.8861 19.3267 59.8062 19.6737C59.7263 20.0207 59.6464 20.3677 59.523 20.7164L57.4212 28.5354C57.2579 29.0576 56.9585 29.3269 56.4361 29.3466L52.9096 29.4799L47.6641 14.1128Z" fill="#D8271C"/>
<path d="M79.4721 12.5692C80.5204 12.5294 81.485 12.6659 82.3649 12.9354C83.2449 13.2049 83.9974 13.6523 84.6215 14.2344C85.2457 14.8165 85.7861 15.5748 86.1536 16.4262C86.522 17.3208 86.7175 18.3085 86.741 19.4325C86.7482 19.7784 86.7546 20.081 86.7154 20.2988C86.6762 20.5166 86.6362 20.6912 86.5515 20.8242C86.4669 20.9572 86.3813 21.047 86.2075 21.0969C86.0774 21.1451 85.9036 21.1949 85.6852 21.2032L76.5997 21.5476C76.7579 22.8395 77.2145 23.7741 77.8824 24.3545C78.5502 24.9349 79.3856 25.1628 80.4339 25.1231C81.0017 25.1016 81.4376 25.0418 81.8708 24.8523C82.2612 24.7077 82.608 24.5648 82.9101 24.3803C83.2122 24.1957 83.5153 24.0545 83.7747 23.9148C84.034 23.7752 84.2943 23.6788 84.6001 23.6672C84.9932 23.6523 85.258 23.7721 85.4818 24.0232L86.9148 25.6562C86.446 26.2365 85.9309 26.6886 85.3703 27.056C84.8097 27.4234 84.2473 27.7043 83.6403 27.9437C83.0333 28.183 82.4681 28.3342 81.8575 28.4006C81.2478 28.5103 80.6809 28.575 80.1567 28.5949C79.0647 28.6363 78.0128 28.5031 77.0446 28.1937C76.0764 27.8842 75.1911 27.3553 74.4777 26.6901C73.7207 26.0265 73.1339 25.1402 72.6754 24.1192C72.217 23.0982 72.0169 21.8943 71.9871 20.4677C71.9654 19.4301 72.1194 18.4292 72.4489 17.4648C72.7785 16.5005 73.2855 15.6592 73.9699 14.941C74.6107 14.2245 75.4289 13.631 76.3808 13.1623C77.2053 12.8714 78.2928 12.6139 79.4721 12.5692ZM79.6272 15.8082C78.71 15.843 78.0165 16.1289 77.5032 16.6675C76.9899 17.2062 76.6995 17.9527 76.5446 18.9104L82.4414 18.6869C82.4333 18.2978 82.3824 17.9536 82.2878 17.6111C82.1932 17.2685 82.0122 16.9725 81.7874 16.6782C81.5636 16.4271 81.2524 16.1793 80.8994 16.0196C80.59 15.8583 80.1514 15.7884 79.6272 15.8082Z" fill="#D8271C"/>
<path d="M95.9803 12.1097C97.0285 12.0699 97.993 12.2064 98.8729 12.4759C99.7528 12.7454 100.505 13.1928 101.129 13.7748C101.753 14.3568 102.25 15.1167 102.661 15.9664C103.03 16.8609 103.225 17.8486 103.249 18.9725C103.256 19.3183 103.262 19.6209 103.223 19.8387C103.184 20.0565 103.144 20.2311 103.059 20.3641C102.975 20.4971 102.889 20.5868 102.715 20.6367C102.585 20.6849 102.411 20.7347 102.193 20.743L93.0644 21.089C93.2225 22.3809 93.6792 23.3154 94.347 23.8957C95.0148 24.4761 95.8501 24.704 96.8983 24.6643C97.4661 24.6428 97.902 24.583 98.3351 24.3935C98.7255 24.2489 99.0722 24.106 99.3744 23.9215C99.6765 23.737 99.9795 23.5957 100.239 23.4561C100.498 23.3165 100.758 23.2201 101.064 23.2085C101.457 23.1936 101.722 23.3134 101.946 23.5645L103.335 25.199C102.866 25.7792 102.351 26.2314 101.791 26.5987C101.23 26.9661 100.668 27.2469 100.061 27.4863C99.4538 27.7256 98.8888 27.8768 98.2782 27.9432C97.6685 28.0528 97.1016 28.1176 96.5775 28.1374C95.4856 28.1788 94.4337 28.0457 93.4219 27.7379C92.4538 27.4285 91.5685 26.8996 90.8552 26.2345C90.0983 25.571 89.5115 24.6847 89.053 23.6638C88.5946 22.6428 88.3509 21.4407 88.3211 20.0142C88.2994 18.9767 88.4533 17.9758 88.7829 17.0116C89.1124 16.0473 89.6194 15.2061 90.3038 14.488C90.9881 13.7698 91.7626 13.1781 92.7145 12.7093C93.7136 12.4119 94.7573 12.156 95.9803 12.1097ZM96.1354 15.3485C95.2182 15.3833 94.5248 15.6691 94.0115 16.2077C93.4982 16.7463 93.2078 17.4928 93.053 18.4504L98.9494 18.2269C98.9412 17.8379 98.8903 17.4937 98.7958 17.1512C98.7012 16.8087 98.5201 16.5127 98.2954 16.2184C98.0716 15.9673 97.7605 15.7195 97.4074 15.5598C97.0981 15.3985 96.6595 15.3286 96.1354 15.3485Z" fill="#D8271C"/>
<path d="M119.735 23.9712C119.597 23.6739 119.373 23.3799 119.15 23.1723C118.884 22.9663 118.617 22.7603 118.266 22.644C117.606 22.4097 116.776 22.4411 116.127 22.725C115.781 22.8678 115.523 23.0936 115.266 23.3194C115.009 23.5453 114.841 23.8542 114.716 24.1614C114.591 24.4687 114.511 24.8174 114.519 25.2061C114.528 25.5947 114.622 25.9369 114.759 26.2342C114.897 26.5747 115.121 26.8255 115.344 27.0332C115.611 27.2824 115.877 27.4452 116.228 27.5615C116.58 27.6778 116.931 27.7509 117.324 27.7361C117.717 27.7212 118.064 27.6216 118.367 27.4805C118.67 27.3393 118.971 27.155 119.228 26.886C119.485 26.6602 119.653 26.3513 119.777 26.0008C119.901 25.6504 119.981 25.3016 119.974 24.9562C119.966 24.6107 119.872 24.2686 119.735 23.9712Z" fill="#D8271C"/>
<path d="M142.39 26.9529L138.07 27.1166L131.59 11.6755L135.517 11.5267C135.866 11.5135 136.13 11.5899 136.351 11.7112C136.572 11.8757 136.751 12.0418 136.842 12.2544L139.171 19.2099C139.357 19.7647 139.544 20.3194 139.73 20.8741C139.873 21.4305 140.014 21.9437 140.157 22.5001C140.276 21.9338 140.396 21.4106 140.515 20.8443C140.635 20.2781 140.841 19.7084 141.004 19.1405L143.126 12.0162C143.209 11.797 143.335 11.5762 143.594 11.4367C143.809 11.2557 144.07 11.2026 144.375 11.1911L148.128 11.0489L142.39 26.9529Z" fill="#D8271C"/>
<path d="M112.347 24.0866C112.255 23.9162 112.122 23.8344 112.032 23.7509C111.898 23.669 111.721 23.6323 111.545 23.6389C111.413 23.6439 111.282 23.6923 111.195 23.7391C111.108 23.7858 111.021 23.8326 110.933 23.8793C110.89 23.9244 110.802 23.9277 110.715 23.9745C110.628 24.0212 110.54 24.0245 110.408 24.0295C110.188 24.0378 110.055 23.9994 109.964 23.8291C109.828 23.6604 109.78 23.4883 109.774 23.1844L109.632 16.4107L113.196 16.276L113.122 12.7589L109.558 12.8936L109.475 8.94234L105.603 9.08874L105.604 9.13216C104.991 9.28571 104.562 9.86682 104.575 10.4747L104.851 23.6312C104.865 24.2826 104.965 24.8871 105.197 25.4433C105.429 25.9994 105.703 26.4671 106.107 26.8429C106.511 27.2187 107.002 27.5044 107.579 27.6998C108.155 27.8953 108.773 27.9589 109.521 27.9306C110.269 27.9023 111.059 27.7855 111.759 27.5418C112.502 27.2964 113.155 26.9241 113.719 26.5117L113.935 26.3297L112.347 24.0866Z" fill="#D8271C"/>
<path d="M130.458 23.5866C130.367 23.4162 130.233 23.3344 130.143 23.2509C130.009 23.169 129.832 23.1323 129.656 23.1389C129.524 23.1439 129.393 23.1923 129.306 23.2391C129.219 23.2858 129.132 23.3326 129.045 23.3793C129.002 23.4244 128.914 23.4277 128.827 23.4745C128.739 23.5212 128.651 23.5245 128.519 23.5295C128.299 23.5378 128.166 23.4994 128.075 23.3291C127.939 23.1604 127.892 22.9883 127.885 22.6844L127.743 15.9107L131.307 15.776L131.234 12.2589L127.669 12.3936L127.587 8.44234L123.714 8.58874L123.715 8.63216C123.102 8.78571 122.674 9.36682 122.686 9.97471L122.962 23.1312C122.976 23.7826 123.077 24.3871 123.308 24.9433C123.54 25.4994 123.814 25.9671 124.219 26.3429C124.623 26.7187 125.113 27.0044 125.69 27.1998C126.266 27.3953 126.884 27.4589 127.632 27.4306C128.38 27.4023 129.171 27.2855 129.87 27.0418C130.614 26.7964 131.266 26.4241 131.83 26.0117L132.047 25.8297L130.458 23.5866Z" fill="#D8271C"/>
<path d="M16.3675 7.77985C8.30743 8.29684 1.81877 14.8931 1.91027 22.5387C2.00176 30.1844 8.63822 35.9387 16.6983 35.4217C24.7583 34.9048 31.247 28.3085 31.1555 20.6629C31.1081 13.0144 24.4716 7.26004 16.3675 7.77985ZM21.7681 20.7605L13.9335 25.3831C13.2768 25.7615 12.7438 25.4173 12.7342 24.6192L12.5557 17.0632C12.5461 16.265 13.0696 15.8111 13.7343 16.1047L21.7095 19.5451C22.3742 19.8388 22.4247 20.3821 21.7681 20.7605Z" fill="#2D3945"/>
<path opacity="0.5" d="M17.6667 7.45932C9.51574 7.98239 2.9818 14.6706 3.07383 22.364C3.16587 30.0575 9.84968 35.8974 18.0006 35.3743C26.1516 34.8513 32.0687 28.2027 31.9767 20.5093C31.9287 12.813 25.8176 6.93626 17.6667 7.45932ZM23.1147 20.5731L15.2334 25.202C14.5765 25.5807 14.0433 25.2363 13.9896 24.4403L13.8105 16.8366C13.8009 16.0378 14.3246 15.5835 14.9895 15.8774L23.0561 19.3567C23.721 19.6506 23.7716 20.1943 23.1147 20.5731Z" fill="#2D3945"/>
<path d="M30.8977 17.2587C30.3418 14.9481 27.5162 10.5622 25.7484 9.96313C24.0691 9.40026 23.1759 8.32623 22.5147 8.24286C21.8974 8.15667 18.9806 7.17025 17.9715 7.4443C16.9624 7.71835 15.507 7.47632 14.6724 7.61353C13.8382 7.7926 9.40711 8.99787 6.92625 11.3352C4.57583 13.5385 3.88567 14.7139 3.88567 14.7139C3.88567 14.7139 -0.456102 23.3709 2.89855 24.1617C3.7812 24.3566 3.65528 24.8674 3.7098 25.7438C3.72535 27.0415 3.33153 27.2343 4.35214 27.9231C5.37275 28.6119 6.41125 27.121 7.30092 27.902C8.14661 28.6858 6.49739 30.6348 8.88746 31.7387C11.277 32.8008 10.887 29.6416 12.5649 30.0789C14.2867 30.5134 12.8184 32.8697 14.7551 32.8715C16.6923 32.9151 15.959 30.4901 17.1045 30.5844C18.25 30.6787 17.6114 32.4792 19.9814 31.9086C22.3514 31.338 20.745 29.5135 22.0159 29.0551C23.3308 28.5939 23.7998 30.9939 26.3226 28.4863C28.8454 25.9787 26.4269 26.1753 26.9877 25.2177C27.5044 24.263 28.0952 25.8172 28.8173 23.6343C29.5834 21.4486 28.8892 22.289 28.7892 21.2899C28.6897 20.3327 31.4535 19.5693 30.8977 17.2587Z" fill="white"/>
<path d="M26.34 25.0376L24.545 25.2256C24.3699 25.244 24.2379 25.149 24.237 25.0039L24.2345 24.6051C24.2336 24.4601 24.3642 24.3376 24.5394 24.3192L26.3343 24.1312C26.5095 24.1129 26.6415 24.2079 26.6424 24.3529L26.6449 24.7517C26.6018 24.8651 26.4713 25.0238 26.34 25.0376Z" fill="#D8271C"/>
<path d="M26.5923 19.8056C26.5477 19.8111 26.5031 19.8167 26.4136 19.7874L26.0106 19.5952C25.9212 19.5659 25.8761 19.4908 25.8759 19.4505C25.8754 19.3699 25.875 19.2892 25.9194 19.2434L26.8483 17.6763C26.9369 17.5443 27.1149 17.4416 27.2492 17.5057L27.6522 17.6979C27.7417 17.7272 27.7868 17.8023 27.787 17.8426C27.7874 17.9232 27.7879 18.0038 27.7435 18.0497L26.8146 19.6168C26.8152 19.7377 26.6816 19.7946 26.5923 19.8056Z" fill="#D8271C"/>
<path d="M23.9836 16.6009C23.9389 16.6064 23.8943 16.612 23.8494 16.5771L23.4463 16.3846C23.312 16.3204 23.2664 16.1644 23.3548 15.9919L24.284 14.4222C24.3726 14.29 24.5507 14.1871 24.6851 14.2513L25.0882 14.4438C25.1777 14.4732 25.2228 14.5484 25.223 14.5888C25.2234 14.6695 25.2239 14.7503 25.1795 14.7962L24.2505 16.4062C24.1617 16.498 24.0728 16.5899 23.9836 16.6009Z" fill="#F6BF48"/>
<path d="M21.5109 12.8893C21.466 12.8949 21.4212 12.9005 21.3761 12.8653C21.2862 12.8358 21.2411 12.8007 21.1958 12.7247L20.5587 11.1729C20.5134 11.097 20.5129 11.0155 20.5575 10.9691C20.6019 10.882 20.6465 10.8356 20.736 10.7837L21.1836 10.5645C21.3628 10.5013 21.5425 10.5197 21.5882 10.6771L22.2253 12.2289C22.2711 12.3863 22.2272 12.555 22.048 12.6182L21.6004 12.8373C21.6006 12.8781 21.5557 12.8837 21.5109 12.8893Z" fill="#D8271C"/>
<path d="M19.0875 13.5349C19.0438 13.5774 19.0438 13.5774 19.0001 13.6198C18.9125 13.6671 18.8686 13.672 18.7807 13.6818L16.9773 13.4694C16.8894 13.4792 16.845 13.409 16.8009 13.3764C16.7565 13.3062 16.7561 13.2311 16.7558 13.1935L16.8854 12.8034C16.9284 12.6484 17.1037 12.5537 17.2357 12.5766L19.0392 12.789C19.127 12.7792 19.1714 12.8494 19.2155 12.882C19.2599 12.9522 19.2604 13.0273 19.2606 13.0649L19.131 13.455C19.1312 13.4925 19.1315 13.53 19.0875 13.5349Z" fill="#20BEC6"/>
<path d="M14.6301 10.6614C14.4983 10.6761 14.366 10.6156 14.3212 10.4699L14.2308 10.0656C14.2304 9.99028 14.2299 9.91498 14.2737 9.87241C14.3172 9.7922 14.4048 9.74471 14.4488 9.73979L16.2045 9.20427C16.2923 9.19443 16.3802 9.1846 16.4244 9.21733C16.5125 9.24514 16.5569 9.31553 16.5571 9.35317L16.6474 9.75748C16.6923 9.90316 16.5613 10.0685 16.4297 10.1209L14.674 10.6564L14.6301 10.6614Z" fill="#F6BF48"/>
<path d="M20.2785 28.1478C20.2339 28.1533 20.1892 28.1588 20.1444 28.124L19.7412 27.9315C19.6069 27.8673 19.5613 27.7113 19.6497 27.5387L20.5789 25.9691C20.6675 25.8369 20.8456 25.734 20.98 25.7982L21.3831 25.9907C21.4726 26.02 21.5177 26.0953 21.5179 26.1356C21.5184 26.2164 21.5188 26.2972 21.4744 26.3431L20.5452 27.9127C20.4568 28.0853 20.3678 28.1367 20.2785 28.1478Z" fill="#20BEC6"/>
<path d="M7.0731 17.1201L5.48195 16.61C5.34925 16.5482 5.26018 16.4041 5.34769 16.278L5.5659 15.8665C5.65318 15.702 5.82931 15.6429 5.96202 15.7047L7.55316 16.2148C7.68586 16.2766 7.77493 16.4207 7.68742 16.5467L7.46921 16.9582C7.38171 17.0842 7.2058 17.1819 7.0731 17.1201Z" fill="#F6BF48"/>
<path d="M7.44053 25.0108C7.39619 24.9772 7.35186 24.9437 7.35164 24.905L7.12884 24.5435C7.03995 24.4377 7.12706 24.2338 7.25896 24.1409L8.8867 23.1758C8.97471 23.1268 9.06293 23.1165 9.10705 23.1113C9.1955 23.1397 9.23983 23.1733 9.28417 23.2069L9.50696 23.5683C9.55152 23.6406 9.55197 23.718 9.50808 23.7619C9.46441 23.8445 9.42052 23.8884 9.37663 23.9322L7.74888 24.8973C7.66087 24.9463 7.57265 24.9566 7.52853 24.9618C7.48464 25.0057 7.44053 25.0108 7.44053 25.0108Z" fill="#20BEC6"/>
<path d="M9.17468 14.1423C9.13005 14.1478 9.08541 14.1533 8.99591 14.124L8.59281 13.9315C8.45844 13.8673 8.4129 13.7113 8.50127 13.5387L9.4305 11.9691C9.51909 11.8369 9.69719 11.734 9.83156 11.7982L10.2347 11.9907C10.3242 12.02 10.3692 12.0953 10.3695 12.1356C10.3699 12.2164 10.3704 12.2972 10.326 12.3431L9.39674 13.9127C9.35255 13.999 9.30814 14.0449 9.21887 14.056C9.21932 14.1367 9.17468 14.1423 9.17468 14.1423Z" fill="#D8271C"/>
<path d="M8.2795 21.2319C8.19145 21.321 8.01447 21.3422 7.92531 21.2349L6.50345 20.3432C6.37004 20.2412 6.36915 20.084 6.45697 19.9556L6.7649 19.6043C6.80892 19.5597 6.89719 19.5099 6.98568 19.4993C7.07417 19.4887 7.16266 19.4782 7.20735 19.5515L8.62922 20.4432C8.67368 20.4772 8.71837 20.5505 8.76307 20.6238C8.76351 20.7023 8.76396 20.7809 8.71994 20.8255L8.41201 21.1768C8.32374 21.2266 8.32374 21.2266 8.2795 21.2319Z" fill="#D8271C"/>
<path d="M10.1285 29.1537C9.99348 29.1706 9.85798 29.1056 9.81228 28.9882L9.3077 27.3693C9.26176 27.2109 9.35086 27.0356 9.53068 26.9719L9.98009 26.7924C10.0701 26.781 10.1601 26.7697 10.2054 26.8051C10.2956 26.8348 10.3409 26.8701 10.3413 26.9521L10.8459 28.5711C10.8464 28.6531 10.8468 28.7351 10.8021 28.7818C10.7575 28.8694 10.7127 28.9161 10.6227 28.9274L10.1733 29.107C10.2185 29.1423 10.1735 29.148 10.1285 29.1537Z" fill="#D8271C"/>
<path d="M15.9995 29.9171C15.8645 29.9341 15.729 29.8691 15.6833 29.7517L15.2237 28.1271C15.1778 27.9687 15.2669 27.7934 15.4467 27.7298L15.8961 27.5502C15.9861 27.5389 16.0762 27.5275 16.1214 27.5629C16.2117 27.5926 16.2571 27.6689 16.2574 27.7099L16.7619 29.3289C16.7624 29.4109 16.7629 29.4929 16.7181 29.5396C16.6735 29.6272 16.6288 29.6739 16.5387 29.6852L16.0893 29.8648C16.0445 29.9115 16.0445 29.9115 15.9995 29.9171Z" fill="#F6BF48"/>
<path d="M23.2396 19.0656L12.9774 15.0776C12.1333 14.7443 11.4292 15.2996 11.4375 16.323L11.6019 25.7307C11.6102 26.7542 12.3219 27.1404 13.1594 26.655L23.2522 20.6212C24.1336 20.0909 24.0837 19.3989 23.2396 19.0656Z" fill="#20BEC6"/>
<path d="M23.146 18.8874L12.9651 15.0347C12.1277 14.7127 11.4292 15.2485 11.4373 16.2364L11.4474 17.4615L21.6276 21.2351L23.1141 20.3534C24.0328 19.8774 23.9834 19.2095 23.146 18.8874Z" fill="#2D3945"/>
</svg>
